# File created by Blade
# Date/Time:  Thu Jan 22 19:18:16 2015
# Frame Rate: 120.000 fps
#------------------------------------------------------
:FULLY-SPECIFIED
:DEGREES
1561
root 1.055605 32.355972 -1.033000 9.188136 -3.248486 1.086341
RightUpLeg -3.196427 -15.141680 -10.221264
RightLeg -2.172097 -0.000000 0.000000
RightFoot -7.765663 -3.015477 11.278945
RightToeBase 7.216928 -0.000000 -0.000000
LeftUpLeg -2.691135 13.847182 13.262885
LeftLeg 0.502002 -0.000000 -0.000000
LeftFoot -7.779523 2.937268 -26.667414
LeftToeBase 9.456475 -0.000000 -0.000000
Spine -9.090258 -2.010832 0.872193
RightShoulder -21.945649 -13.755077 -27.929164
RightArm 21.050015 29.279330 36.707009
RightForeArm -17.421147 -0.000000 8.001872
RightHand 10.540422 0.000000 10.860816
RightHandThumb1 -24.326973 -0.000000 -32.862282
LeftShoulder -26.387797 7.916965 30.714659
LeftArm 16.851146 -25.971677 -32.575934
LeftForeArm 27.613721 -0.000000 -0.892711
LeftHand -3.644667 -0.000000 -7.096101
LeftHandThumb1 -26.253704 0.000000 33.147579
Head -5.849004 4.087916 -1.216540
1562
root 1.056882 32.357022 -1.042116 9.203156 -3.242472 1.092510
RightUpLeg -3.226841 -15.159187 -10.219461
RightLeg -2.175200 -0.000000 0.000000
RightFoot -7.743061 -2.996110 11.289007
RightToeBase 7.246176 -0.000000 -0.000000
LeftUpLeg -2.725280 13.849886 13.249312
LeftLeg 0.501537 -0.000000 -0.000000
LeftFoot -7.762291 2.935927 -26.653328
LeftToeBase 9.476582 -0.000000 -0.000000
Spine -9.099248 -2.007442 0.866254
RightShoulder -21.935714 -13.751769 -27.943637
RightArm 21.041818 29.246944 36.729968
RightForeArm -17.392720 -0.000000 7.942816
RightHand 10.548217 -0.000000 10.875569
RightHandThumb1 -24.326973 -0.000000 -32.862282
LeftShoulder -26.354079 7.905714 30.697441
LeftArm 16.807462 -25.941632 -32.581277
LeftForeArm 27.597669 0.000000 -0.890233
LeftHand -3.642272 0.000000 -7.162260
LeftHandThumb1 -26.253704 0.000000 33.147579
Head -5.881510 4.070328 -1.218654
1563
root 1.058201 32.357823 -1.050731 9.218945 -3.247163 1.096033
RightUpLeg -3.264529 -15.157538 -10.217695
RightLeg -2.164801 -0.000000 0.000000
RightFoot -7.734071 -3.011840 11.288610
RightToeBase 7.150040 -0.000000 -0.000000
LeftUpLeg -2.754378 13.888844 13.235458
LeftLeg 0.497895 -0.000000 -0.000000
LeftFoot -7.734077 2.913382 -26.653989
LeftToeBase 9.456689 -0.000000 -0.000000
Spine -9.100670 -2.008804 0.862189
RightShoulder -21.925646 -13.741851 -27.950340
RightArm 21.036214 29.234166 36.755286
RightForeArm -17.457578 0.000000 7.917715
RightHand 10.532699 -0.000000 10.933933
RightHandThumb1 -24.326973 -0.000000 -32.862282
LeftShoulder -26.359670 7.905954 30.672137
LeftArm 16.783556 -25.916463 -32.595842
LeftForeArm 27.560196 -0.000000 -0.874228
LeftHand -3.635354 -0.000000 -7.193468
LeftHandThumb1 -26.253704 0.000000 33.147579
Head -5.940120 4.081769 -1.210975
1564
root 1.059094 32.358730 -1.058782 9.226509 -3.246540 1.099342
RightUpLeg -3.285340 -15.172662 -10.215264
RightLeg -2.170599 -0.000000 0.000000
RightFoot -7.719912 -3.003545 11.233545
RightToeBase 7.224081 -0.000000 -0.000000
LeftUpLeg -2.778523 13.912483 13.224193
LeftLeg 0.497874 -0.000000 -0.000000
LeftFoot -7.717415 2.906607 -26.640425
LeftToeBase 9.480918 -0.000000 -0.000000
Spine -9.096539 -2.016062 0.860330
RightShoulder -21.905101 -13.734193 -27.957711
RightArm 21.001389 29.242350 36.781040
RightForeArm -17.532779 -0.000000 7.943277
RightHand 10.532870 -0.000000 11.036885
RightHandThumb1 -24.326973 -0.000000 -32.862282
LeftShoulder -26.366566 7.914427 30.631541
LeftArm 16.767412 -25.924799 -32.604037
LeftForeArm 27.540316 -0.000000 -0.855574
LeftHand -3.582243 -0.000000 -7.239994
LeftHandThumb1 -26.253704 0.000000 33.147579
Head -5.987441 4.082497 -1.211858
1565
root 1.059728 32.359625 -1.066386 9.239807 -3.247825 1.099536
RightUpLeg -3.308713 -15.194349 -10.207708
RightLeg -2.181344 -0.000000 0.000000
RightFoot -7.688327 -2.986065 11.279006
RightToeBase 7.163226 -0.000000 -0.000000
LeftUpLeg -2.806865 13.954585 13.214860
LeftLeg 0.498918 -0.000000 -0.000000
LeftFoot -7.690354 2.880901 -26.622181
LeftToeBase 9.478667 -0.000000 -0.000000
Spine -9.107270 -2.014811 0.859355
RightShoulder -21.893406 -13.729997 -27.944381
RightArm 20.987765 29.230410 36.781559
RightForeArm -17.563974 0.000000 7.928042
RightHand 10.557997 0.000000 11.101577
RightHandThumb1 -24.326973 -0.000000 -32.862282
LeftShoulder -26.356097 7.916930 30.605426
LeftArm 16.734107 -25.926081 -32.614392
LeftForeArm 27.531397 0.000000 -0.835358
LeftHand -3.551829 -0.000000 -7.271567
LeftHandThumb1 -26.253704 0.000000 33.147579
Head -5.996022 4.074040 -1.215093
1566
root 1.060399 32.359948 -1.073372 9.244993 -3.254831 1.098334
RightUpLeg -3.328571 -15.206869 -10.203968
RightLeg -2.181373 -0.000000 0.000000
RightFoot -7.664129 -2.986217 11.219068
RightToeBase 7.076191 -0.000000 -0.000000
LeftUpLeg -2.821489 13.982115 13.211842
LeftLeg 0.501077 -0.000000 -0.000000
LeftFoot -7.680205 2.852957 -26.651634
LeftToeBase 9.504095 -0.000000 -0.000000
Spine -9.100058 -2.000154 0.849792
RightShoulder -21.907212 -13.739039 -27.927942
RightArm 21.018192 29.214398 36.823738
RightForeArm -17.554421 -0.000000 7.879871
RightHand 10.491161 0.000000 10.935855
RightHandThumb1 -24.326973 -0.000000 -32.862282
LeftShoulder -26.362490 7.905485 30.599256
LeftArm 16.731954 -25.952563 -32.655284
LeftForeArm 27.525210 -0.000000 -0.825892
LeftHand -3.513768 0.000000 -7.254321
LeftHandThumb1 -26.253704 0.000000 33.147579
Head -6.035271 4.059250 -1.192149
1567
root 1.060790 32.360533 -1.080442 9.251432 -3.257596 1.099912
RightUpLeg -3.345470 -15.222092 -10.199960
RightLeg -2.191154 -0.000000 0.000000
RightFoot -7.656087 -2.947595 11.252074
RightToeBase 7.178654 -0.000000 -0.000000
LeftUpLeg -2.840411 14.002943 13.206001
LeftLeg 0.500738 -0.000000 -0.000000
LeftFoot -7.654714 2.840757 -26.618543
LeftToeBase 9.484274 -0.000000 -0.000000
Spine -9.096730 -1.994636 0.841172
RightShoulder -21.905983 -13.733458 -27.902569
RightArm 21.000637 29.228832 36.826223
RightForeArm -17.609453 -0.000000 7.890117
RightHand 10.526938 -0.000000 10.977505
RightHandThumb1 -24.326973 -0.000000 -32.862282
LeftShoulder -26.372331 7.906070 30.584923
LeftArm 16.736095 -25.999432 -32.697316
LeftForeArm 27.521927 -0.000000 -0.814467
LeftHand -3.509886 -0.000000 -7.260621
LeftHandThumb1 -26.253704 0.000000 33.147579
Head -6.063735 4.042884 -1.176631
1568
root 1.060276 32.360697 -1.087707 9.262671 -3.268677 1.091974
RightUpLeg -3.367605 -15.179856 -10.190878
RightLeg -2.196454 -0.000000 0.000000
RightFoot -7.644594 -2.988822 11.245913
RightToeBase 7.198800 -0.000000 -0.000000
LeftUpLeg -2.863140 14.013141 13.209650
LeftLeg 0.509162 -0.000000 -0.000000
LeftFoot -7.670729 2.844598 -26.644837
LeftToeBase 9.521161 -0.000000 -0.000000
Spine -9.097944 -1.975875 0.840067
RightShoulder -21.924360 -13.734293 -27.889902
RightArm 21.017307 29.248488 36.878469
RightForeArm -17.581759 -0.000000 7.908708
RightHand 10.550686 -0.000000 11.108590
RightHandThumb1 -24.326973 -0.000000 -32.862282
LeftShoulder -26.388479 7.910391 30.565507
LeftArm 16.765526 -26.003709 -32.726421
LeftForeArm 27.463044 -0.000000 -0.832124
LeftHand -3.539306 -0.000000 -7.300427
LeftHandThumb1 -26.253704 0.000000 33.147579
Head -6.095695 4.018952 -1.162980
1569
root 1.059516 32.361501 -1.093225 9.265181 -3.273421 1.082309
RightUpLeg -3.394924 -15.275989 -10.161644
RightLeg -2.186555 -0.000000 0.000000
RightFoot -7.622694 -2.881462 11.234289
RightToeBase 7.307498 -0.000000 -0.000000
LeftUpLeg -2.875231 14.032769 13.218487
LeftLeg 0.512095 -0.000000 -0.000000
LeftFoot -7.657430 2.830673 -26.645435
LeftToeBase 9.544122 -0.000000 -0.000000
Spine -9.087560 -1.978852 0.845904
RightShoulder -21.926729 -13.695725 -27.868105
RightArm 21.001013 29.230039 36.867042
RightForeArm -17.602443 -0.000000 7.908990
RightHand 10.557493 0.000000 11.018449
RightHandThumb1 -24.326973 -0.000000 -32.862282
LeftShoulder -26.416048 7.900487 30.544154
LeftArm 16.768176 -26.011673 -32.738631
LeftForeArm 27.493069 -0.000000 -0.849454
LeftHand -3.618336 0.000000 -7.427210
LeftHandThumb1 -26.253704 0.000000 33.147579
Head -6.153215 4.011713 -1.138940
1570
root 1.058390 32.361568 -1.100330 9.277521 -3.278704 1.078563
RightUpLeg -3.411419 -15.205205 -10.160640
RightLeg -2.197923 -0.000000 0.000000
RightFoot -7.621968 -2.936631 11.265677
RightToeBase 7.249709 -0.000000 -0.000000
LeftUpLeg -2.904988 14.038411 13.218220
LeftLeg 0.526059 -0.000000 -0.000000
LeftFoot -7.658518 2.839551 -26.628688
LeftToeBase 9.541375 -0.000000 -0.000000
Spine -9.093364 -1.971623 0.835627
RightShoulder -21.940704 -13.714215 -27.840680
RightArm 21.028616 29.269645 36.920854
RightForeArm -17.543769 -0.000000 7.935398
RightHand 10.536796 -0.000000 11.052350
RightHandThumb1 -24.326973 -0.000000 -32.862282
LeftShoulder -26.429001 7.891331 30.545872
LeftArm 16.778019 -26.002032 -32.766232
LeftForeArm 27.471284 -0.000000 -0.858670
LeftHand -3.637710 -0.000000 -7.496161
LeftHandThumb1 -26.253704 0.000000 33.147579
Head -6.160484 3.981303 -1.109139
1571
root 1.057834 32.362410 -1.105442 9.280175 -3.288406 1.067984
RightUpLeg -3.442782 -15.279454 -10.135222
RightLeg -2.171800 -0.000000 0.000000
RightFoot -7.598108 -2.878840 11.224656
RightToeBase 7.200138 -0.000000 -0.000000
LeftUpLeg -2.911791 14.046448 13.227479
LeftLeg 0.525793 -0.000000 -0.000000
LeftFoot -7.654164 2.839538 -26.619118
LeftToeBase 9.519380 -0.000000 -0.000000
Spine -9.098506 -1.947959 0.837406
RightShoulder -21.954127 -13.726234 -27.817701
RightArm 21.054934 29.271357 36.944945
RightForeArm -17.481863 -0.000000 7.911596
RightHand 10.596535 -0.000000 10.998534
RightHandThumb1 -24.326973 -0.000000 -32.862282
LeftShoulder -26.407751 7.875103 30.538085
LeftArm 16.756515 -26.021471 -32.777311
LeftForeArm 27.485857 -0.000000 -0.860603
LeftHand -3.676814 -0.000000 -7.418024
LeftHandThumb1 -26.253704 0.000000 33.147579
Head -6.151546 3.945872 -1.089398
1572
root 1.057123 32.362645 -1.110832 9.283882 -3.295532 1.065554
RightUpLeg -3.463458 -15.300900 -10.126223
RightLeg -2.165459 -0.000000 0.000000
RightFoot -7.587783 -2.839608 11.200819
RightToeBase 7.301941 -0.000000 -0.000000
LeftUpLeg -2.922885 14.051454 13.228952
LeftLeg 0.527182 -0.000000 -0.000000
LeftFoot -7.650317 2.837300 -26.647705
LeftToeBase 9.544089 -0.000000 -0.000000
Spine -9.105144 -1.953705 0.832276
RightShoulder -21.950500 -13.753573 -27.779094
RightArm 21.098843 29.301684 36.960938
RightForeArm -17.511261 -0.000000 7.911492
RightHand 10.556872 0.000000 11.056296
RightHandThumb1 -24.326973 -0.000000 -32.862282
LeftShoulder -26.425131 7.879593 30.530932
LeftArm 16.756332 -26.018282 -32.785334
LeftForeArm 27.471251 -0.000000 -0.853892
LeftHand -3.698052 0.000000 -7.441104
LeftHandThumb1 -26.253704 0.000000 33.147579
Head -6.139567 3.934851 -1.066687
